<svg width="28" height="28" viewBox="0 0 28 28" fill="none" xmlns="http://www.w3.org/2000/svg">
<path d="M19.3307 0.667969H8.66406C4.25206 0.667969 0.664062 4.25597 0.664062 8.66797V26.0013C0.664063 26.3549 0.804538 26.6941 1.05459 26.9441C1.30464 27.1942 1.64377 27.3346 1.9974 27.3346H19.3307C23.7427 27.3346 27.3307 23.7466 27.3307 19.3346V8.66797C27.3307 4.25597 23.7427 0.667969 19.3307 0.667969ZM16.6641 16.668C16.6641 17.4043 16.0671 18.0013 15.3307 18.0013H8.66406C7.92768 18.0013 7.33073 17.4043 7.33073 16.668C7.33073 15.9316 7.92768 15.3346 8.66406 15.3346H15.3307C16.0671 15.3346 16.6641 15.9316 16.6641 16.668ZM20.6641 11.3346C20.6641 12.071 20.0671 12.668 19.3307 12.668H8.66406C7.92768 12.668 7.33073 12.071 7.33073 11.3346C7.33073 10.5983 7.92768 10.0013 8.66406 10.0013H19.3307C20.0671 10.0013 20.6641 10.5983 20.6641 11.3346Z" fill="url(#paint0_linear_160_23334)"/>
<defs>
<linearGradient id="paint0_linear_160_23334" x1="1.07422" y1="15.2321" x2="27.5358" y2="15.2321" gradientUnits="userSpaceOnUse">
<stop stop-color="#00F090"/>
<stop offset="1" stop-color="#009EFB"/>
</linearGradient>
</defs>
</svg>
