<svg width="32" height="28" viewBox="0 0 32 28" fill="none" xmlns="http://www.w3.org/2000/svg">
<path d="M16 0C24.8375 4.18639e-07 32 5.81875 32 13C32 20.1812 24.8375 26 16 26C13.6 26 11.3309 25.5559 9.28711 24.7871C7.74959 26.0121 4.64371 28 0.5 28C0.300084 28 0.12524 27.8876 0.0439453 27.7002C-0.0373047 27.5127 0.000195318 27.3 0.137695 27.1562C0.1738 27.1198 2.78193 24.3159 3.5625 21.1689C1.3375 18.9377 1.37155e-07 16.1 0 13C0 5.81875 7.1625 0 16 0ZM10.5557 11C9.69658 11 9 11.6966 9 12.5557C9.00009 13.4147 9.69663 14.1113 10.5557 14.1113C11.4146 14.1112 12.1112 13.4146 12.1113 12.5557C12.1113 11.6966 11.4147 11.0001 10.5557 11ZM15.667 11C14.8079 11 14.1113 11.6966 14.1113 12.5557C14.1114 13.4147 14.808 14.1113 15.667 14.1113C16.5258 14.1111 17.2216 13.4145 17.2217 12.5557C17.2217 11.6967 16.5259 11.0003 15.667 11ZM20.7773 11C19.9183 11.0001 19.2217 11.6966 19.2217 12.5557C19.2218 13.4146 19.9184 14.1112 20.7773 14.1113C21.6364 14.1113 22.3329 13.4147 22.333 12.5557C22.333 11.6966 21.6364 11 20.7773 11Z" fill="url(#paint0_linear_160_21516)"/>
<defs>
<linearGradient id="paint0_linear_160_21516" x1="0.492187" y1="15.2923" x2="32.246" y2="15.2923" gradientUnits="userSpaceOnUse">
<stop stop-color="#00F090"/>
<stop offset="1" stop-color="#009EFB"/>
</linearGradient>
</defs>
</svg>
