<svg width="16" height="16" viewBox="0 0 16 16" fill="none" xmlns="http://www.w3.org/2000/svg">
<path fill-rule="evenodd" clip-rule="evenodd" d="M7.89595 2.11788C7.28964 2.11788 6.77198 2.50535 6.58041 3.0478C6.53786 3.16214 6.45208 3.25517 6.34157 3.30684C6.23105 3.3585 6.10466 3.36467 5.98964 3.324C5.87462 3.28333 5.7802 3.19908 5.72673 3.08943C5.67326 2.97977 5.66503 2.8535 5.70381 2.73783C5.8641 2.28443 6.16101 1.89188 6.55365 1.61424C6.9463 1.33659 7.41536 1.1875 7.89626 1.1875C8.37715 1.1875 8.84622 1.33659 9.23886 1.61424C9.63151 1.89188 9.92842 2.28443 10.0887 2.73783C10.1091 2.79543 10.1179 2.85647 10.1146 2.91748C10.1114 2.97848 10.0962 3.03825 10.0698 3.09337C10.0435 3.14849 10.0066 3.19788 9.96113 3.23873C9.91571 3.27958 9.86268 3.31108 9.80508 3.33143C9.74748 3.35178 9.68644 3.36059 9.62543 3.35735C9.56443 3.35411 9.50466 3.33889 9.44954 3.31255C9.39442 3.28622 9.34503 3.24928 9.30418 3.20386C9.26333 3.15843 9.23183 3.1054 9.21148 3.0478C9.1153 2.77578 8.93714 2.54027 8.70153 2.37372C8.46593 2.20718 8.18447 2.11779 7.89595 2.11788Z" fill="#020617"/>
<path d="M9.13352 8.16406H6.65372C6.57151 8.16406 6.49267 8.19672 6.43454 8.25485C6.37641 8.31298 6.34375 8.39183 6.34375 8.47404V9.81437C6.34376 9.87627 6.36231 9.93675 6.39701 9.98802C6.4317 10.0393 6.48095 10.079 6.53841 10.102L6.97238 10.2756C7.56375 10.5122 8.2235 10.5122 8.81487 10.2756L9.24883 10.102C9.30629 10.079 9.35554 10.0393 9.39024 9.98802C9.42493 9.93675 9.44348 9.87627 9.4435 9.81437V8.47404C9.4435 8.39183 9.41084 8.31298 9.35271 8.25485C9.29458 8.19672 9.21573 8.16406 9.13352 8.16406Z" fill="#020617"/>
<path d="M5.42121 9.9445L2.31898 9.01334C2.33758 10.9439 2.45041 12.7225 3.13236 13.3282C3.94945 14.0548 5.26498 14.0548 7.89481 14.0548C10.5246 14.0548 11.8402 14.0548 12.6573 13.3282C13.3392 12.7225 13.452 10.9439 13.4706 9.01334L10.3678 9.94388C10.3444 10.1686 10.2601 10.3826 10.124 10.5629C9.98786 10.7432 9.80505 10.8828 9.59533 10.9668L9.16136 11.1404C8.34832 11.4657 7.44129 11.4657 6.62825 11.1404L6.19429 10.9668C5.98456 10.8828 5.80175 10.7432 5.66562 10.5629C5.52948 10.3826 5.44518 10.1686 5.42183 9.94388M5.17261 3.51563H10.617C12.1359 3.51563 12.8953 3.51562 13.408 3.93285C13.5072 4.01344 13.5969 4.10313 13.6771 4.20191C14.0943 4.71461 14.0943 5.47405 14.0943 6.99292C14.0943 7.37853 14.0943 7.57071 14.0013 7.72136C13.983 7.75074 13.9623 7.77852 13.9393 7.80444C13.8215 7.9371 13.6374 7.99228 13.2685 8.10325L10.3746 8.97118V8.47522C10.3746 8.14638 10.244 7.83101 10.0114 7.59848C9.77892 7.36595 9.46355 7.23532 9.13471 7.23532H6.65491C6.32607 7.23532 6.01069 7.36595 5.77817 7.59848C5.54564 7.83101 5.41501 8.14638 5.41501 8.47522V8.97118L2.52109 8.10325C2.15222 7.99228 1.96747 7.9371 1.8503 7.80444C1.82735 7.77852 1.80661 7.75074 1.7883 7.72136C1.69531 7.57071 1.69531 7.37853 1.69531 6.99292C1.69531 5.47405 1.69531 4.71461 2.11254 4.20191C2.19313 4.10272 2.28282 4.01303 2.3816 3.93285C2.89429 3.51562 3.65373 3.51563 5.17261 3.51563Z" fill="#020617"/>
</svg>
