<svg width="218" height="449" viewBox="0 0 218 449" fill="none" xmlns="http://www.w3.org/2000/svg">
<g clip-path="url(#clip0_2330_6065)">
<path d="M493.402 0.56125H505.8V0H492.425L486.698 9.9229L480.959 19.8458H458.039L446.573 0H421.698L413.321 14.5027L410.232 19.8458H387.301L375.846 0H350.972L339.506 19.8458H316.574L305.108 0H280.234L268.779 19.8458H245.848L234.382 0H209.508L201.13 14.5027L198.042 19.8458H175.121L163.655 0H138.781L127.315 19.8458H104.395L92.929 0H68.0545L62.316 9.9229L56.5887 19.8458H33.657L22.2024 0H-2.67201L-5.77148 5.3431L-14.1378 19.8458H-37.0695L-48.5353 0H-73.4097L-84.8756 19.8458H-107.796L-119.262 0H-144.136L-149.864 9.9229L-155.602 19.8458H-168V20.9683H-155.602L-149.864 30.8912L-144.136 40.8141L-149.864 50.737L-155.602 60.6711H-168V61.7936H-155.602L-149.864 71.7165L-144.136 81.6394L-149.864 91.5623L-155.602 101.485H-168V102.608H-155.602L-149.864 112.531L-144.136 122.454L-149.864 132.376L-155.602 142.299H-168V143.422H-155.602L-149.864 153.345L-144.136 163.268L-149.864 173.202L-155.602 183.125H-168V184.247H-155.602L-149.864 194.17L-144.136 204.093L-149.864 214.016L-155.602 223.939H-168V225.061H-155.602L-149.864 234.984L-144.136 244.907L-149.864 254.83L-155.602 264.753H-168V265.875H-155.602L-149.864 275.798L-144.136 285.732L-149.864 295.655L-155.602 305.578H-168V306.701H-155.602L-149.864 316.624L-144.136 326.546L-149.864 336.469L-155.602 346.392H-168V347.515H-155.602L-149.864 357.438L-144.136 367.361L-149.864 377.283L-155.602 387.206H-168V388.329H-155.602L-149.864 398.263L-144.136 408.186L-149.864 418.109L-155.602 428.032H-168V429.154H-155.602L-149.864 439.077L-144.136 449H-119.262L-107.796 429.154H-84.8756L-77.2279 442.388L-73.4097 449H-48.5353L-37.0695 429.154H-14.1378L-5.77148 443.657L-2.67201 449H22.2024L33.657 429.154H56.5887L62.316 439.077L68.0545 449H92.929L104.395 429.154H127.315L134.963 442.388L138.781 449H163.655L175.121 429.154H198.042L201.13 434.497L209.508 449H234.382L245.848 429.154H268.779L280.234 449H305.108L316.574 429.154H339.506L347.142 442.388L350.972 449H375.846L387.301 429.154H410.232L413.321 434.497L421.698 449H446.573L458.039 429.154H480.959L486.698 439.077L492.425 449H505.8V448.439H493.402L487.663 438.516L481.936 428.593L487.663 418.67L493.402 408.747H505.8V407.625H493.402L487.663 397.702L481.936 387.768L487.663 377.845L493.402 367.922H505.8V366.799H493.402L487.663 356.876L481.936 346.954L487.663 337.031L493.402 327.108H505.8V325.985H493.402L487.663 316.062L481.936 306.139L487.663 296.217L493.402 286.294H505.8V285.171H493.402L487.663 275.237L481.936 265.314L487.663 255.391L493.402 245.468H505.8V244.346H493.402L487.663 234.423L481.936 224.5L487.663 214.577L493.402 204.654H505.8V203.532H493.402L487.663 193.609L481.936 183.686L487.663 173.763L493.402 163.829H505.8V162.706H493.402L487.663 152.783L481.936 142.861L487.663 132.938L493.402 123.015H505.8V121.892H493.402L487.663 111.969L481.936 102.046L487.663 92.1236L493.402 82.2007H505.8V81.0782H493.402L487.663 71.1553L481.936 61.2324L487.663 51.2983L493.402 41.3754H505.8V40.2529H493.402L487.663 30.33L481.936 20.4071L487.663 10.4842L493.402 0.56125ZM422.675 0.56125H445.596L457.062 20.4071L445.596 40.2529H422.675L411.209 20.4071L422.675 0.56125ZM281.211 203.532L269.745 183.686L281.211 163.829H304.143L315.609 183.686L304.143 203.532H281.211ZM315.609 224.5L304.143 244.346H281.211L269.745 224.5L281.211 204.654H304.143L315.609 224.5ZM280.234 204.093L268.779 223.939H245.848L234.382 204.093L245.848 184.247H268.779L280.234 204.093ZM244.871 224.5L233.405 244.346H210.485L202.837 231.112L199.019 224.5L210.485 204.654H233.405L244.871 224.5ZM233.405 203.532H210.485L199.019 183.686L210.485 163.829H233.405L244.871 183.686L233.405 203.532ZM201.119 189.557L209.508 204.093L201.13 218.596L198.042 223.939H175.121L163.655 204.093L175.121 184.247H198.042L201.119 189.557ZM174.144 224.5L162.678 244.346H139.758L136.67 239.003L128.292 224.5L136.67 209.997L139.758 204.654H162.678L174.144 224.5ZM162.678 203.532H139.758L136.681 198.211L128.292 183.686L136.67 169.183L139.758 163.829H162.678L174.144 183.686L162.678 203.532ZM138.781 204.093L127.315 223.939H104.395L92.929 204.093L104.395 184.247H127.315L138.781 204.093ZM103.418 224.5L91.9519 244.346H69.0203L63.293 234.423L57.5657 224.5L63.293 214.577L69.0203 204.654H91.9519L103.418 224.5ZM91.9519 203.532H69.0203L63.293 193.609L57.5657 183.686L63.293 173.763L69.0203 163.829H91.9519L103.418 183.686L91.9519 203.532ZM62.316 194.17L68.0545 204.093L62.316 214.016L56.5887 223.939H33.657L22.2024 204.093L33.657 184.247H56.5887L62.316 194.17ZM21.2254 203.532H-1.70622L-13.1721 183.686L-1.70622 163.829H21.2254L32.6913 183.686L21.2254 203.532ZM21.2254 204.654L32.6913 224.5L21.2254 244.346H-1.70622L-13.1721 224.5L-1.70622 204.654H21.2254ZM21.2254 245.468L32.6913 265.314L21.2254 285.171H-1.70622L-13.1721 265.314L-1.70622 245.468H21.2254ZM22.2024 244.907L33.657 225.061H56.5887L62.316 234.984L68.0545 244.907L62.316 254.83L56.5887 264.753H33.657L22.2024 244.907ZM63.293 255.391L69.0203 245.468H91.9519L103.418 265.314L91.9519 285.171H69.0203L63.293 275.237L57.5657 265.314L63.293 255.391ZM92.929 244.907L104.395 225.061H127.315L134.963 238.296L138.781 244.907L127.315 264.753H104.395L92.929 244.907ZM136.67 250.823L139.758 245.468H162.678L174.144 265.314L162.678 285.171H139.758L136.703 279.884L128.292 265.314L136.67 250.823ZM163.655 244.907L175.121 225.061H198.042L201.13 230.404L209.508 244.907L201.13 259.41L198.042 264.753H175.121L163.655 244.907ZM210.485 245.468H233.405L244.871 265.314L233.405 285.171H210.485L199.019 265.314L210.485 245.468ZM234.382 244.907L245.848 225.061H268.779L280.234 244.907L268.779 264.753H245.848L234.382 244.907ZM281.211 245.468H304.143L315.609 265.314L304.143 285.171H281.211L269.745 265.314L281.211 245.468ZM305.108 244.907L316.574 225.061H339.506L347.142 238.296L350.972 244.907L339.506 264.753H316.574L305.108 244.907ZM316.574 223.939L305.108 204.093L316.574 184.247H339.506L350.972 204.093L339.506 223.939H316.574ZM316.574 183.125L305.108 163.279L316.574 143.422H339.506L347.142 156.656L350.972 163.268L339.506 183.125H316.574ZM304.143 162.706H281.211L269.745 142.861L281.211 123.015H304.143L315.609 142.861L304.143 162.706ZM280.234 163.268L268.779 183.125H245.848L234.382 163.268L245.848 143.422H268.779L280.234 163.268ZM233.405 162.706H210.485L202.837 149.483L199.019 142.861L210.485 123.015H233.405L244.871 142.861L233.405 162.706ZM201.13 148.776L209.508 163.268L201.13 177.77L198.042 183.125H175.121L163.655 163.268L175.121 143.422H198.042L201.13 148.776ZM162.678 162.706H139.758L136.67 157.363L128.292 142.861L136.681 128.335L139.758 123.015H162.678L174.144 142.861L162.678 162.706ZM134.963 156.656L138.781 163.268L127.315 183.125H104.395L92.929 163.279L104.395 143.422H127.315L134.963 156.656ZM91.9519 162.706H69.0203L63.293 152.783L57.5657 142.861L63.293 132.938L69.0203 123.015H91.9519L103.418 142.861L91.9519 162.706ZM62.316 153.345L68.0545 163.268L62.316 173.202L56.5887 183.125H33.657L22.2024 163.268L33.657 143.422H56.5887L62.316 153.345ZM21.2254 162.706H-1.70622L-13.1721 142.861L-1.70622 123.015H21.2254L32.6913 142.861L21.2254 162.706ZM-5.77148 157.925L-2.67201 163.268L-5.77148 168.622L-14.1378 183.125H-37.0695L-48.5353 163.268L-37.0695 143.422H-14.1378L-5.77148 157.925ZM-14.1378 184.247L-5.74902 198.772L-2.67201 204.093L-5.77148 209.436L-14.1378 223.939H-37.0695L-48.5353 204.093L-37.0695 184.247H-14.1378ZM-14.1378 225.061L-5.77148 239.564L-2.67201 244.907L-5.77148 250.261L-14.1378 264.753H-37.0695L-48.5353 244.907L-37.0695 225.061H-14.1378ZM-14.1378 265.875L-5.72656 280.445L-2.67201 285.732L-5.77148 291.076L-14.1378 305.578H-37.0695L-48.5353 285.732L-37.0695 265.875H-14.1378ZM-1.70622 286.294H21.2254L32.6913 306.139L21.2254 325.985H-1.70622L-13.1721 306.139L-1.70622 286.294ZM22.2024 285.732L33.657 265.875H56.5887L62.316 275.798L68.0545 285.732L62.316 295.655L56.5887 305.578H33.657L22.2024 285.732ZM63.293 296.217L69.0203 286.294H91.9519L103.418 306.139L91.9519 325.985H69.0203L63.293 316.062L57.5657 306.139L63.293 296.217ZM92.929 285.732L104.395 265.875H127.315L138.781 285.732L127.315 305.578H104.395L92.929 285.732ZM136.67 291.637L139.758 286.294H162.678L174.144 306.139L162.678 325.985H139.758L136.67 320.642L128.292 306.139L136.67 291.637ZM163.655 285.732L175.121 265.875H198.042L201.096 271.162L209.508 285.732L201.13 300.224L198.042 305.578H175.121L163.655 285.732ZM210.485 286.294H233.405L244.871 306.139L233.405 325.985H210.485L202.837 312.751L199.019 306.139L210.485 286.294ZM234.382 285.732L245.848 265.875H268.779L280.234 285.732L268.779 305.578H245.848L234.382 285.732ZM281.211 286.294H304.143L315.609 306.139L304.143 325.985H281.211L269.745 306.139L281.211 286.294ZM305.108 285.732L316.574 265.875H339.506L350.972 285.732L339.506 305.578H316.574L305.108 285.732ZM348.849 291.637L351.938 286.294H374.869L386.335 306.139L374.869 325.985H351.938L348.849 320.642L340.483 306.139L348.849 291.637ZM351.938 285.171L348.894 279.884L340.483 265.314L348.849 250.823L351.938 245.468H374.869L386.335 265.314L374.869 285.171H351.938ZM351.938 244.346L348.849 239.003L340.483 224.5L348.849 209.997L351.938 204.654H374.869L386.335 224.5L374.869 244.346H351.938ZM351.938 203.532L348.872 198.211L340.483 183.686L348.849 169.183L351.938 163.829H374.869L386.335 183.686L374.869 203.532H351.938ZM351.938 162.706L348.849 157.363L340.483 142.861L348.872 128.335L351.938 123.015H374.869L386.335 142.861L374.869 162.706H351.938ZM351.938 121.892L348.849 116.549L340.483 102.046L348.872 87.5101L351.938 82.2007H374.869L386.335 102.046L374.869 121.892H351.938ZM347.142 115.842L350.972 122.454L339.506 142.299H316.574L305.108 122.454L316.574 102.608H339.506L347.142 115.842ZM304.143 121.892H281.211L269.745 102.046L281.211 82.2007H304.143L315.609 102.046L304.143 121.892ZM280.234 122.454L268.779 142.299H245.848L234.382 122.454L245.848 102.608H268.779L280.234 122.454ZM233.405 121.892H210.485L202.837 108.658L199.019 102.046L210.485 82.2007H233.405L244.871 102.046L233.405 121.892ZM201.13 107.951L209.508 122.454L201.119 136.99L198.042 142.299H175.121L163.655 122.454L175.121 102.608H198.042L201.13 107.951ZM162.678 121.892H139.758L136.67 116.549L128.292 102.046L136.681 87.5101L139.758 82.2007H162.678L174.144 102.046L162.678 121.892ZM134.963 115.842L138.781 122.454L127.315 142.299H104.395L92.929 122.454L104.395 102.608H127.315L134.963 115.842ZM91.9519 121.892H69.0203L63.293 111.969L57.5657 102.046L63.293 92.1236L69.0203 82.2007H91.9519L103.418 102.046L91.9519 121.892ZM62.316 112.531L68.0545 122.454L62.316 132.376L56.5887 142.299H33.657L22.2024 122.454L33.657 102.608H56.5887L62.316 112.531ZM21.2254 121.892H-1.70622L-13.1721 102.046L-1.70622 82.2007H21.2254L32.6913 102.046L21.2254 121.892ZM-5.77148 117.11L-2.67201 122.454L-5.74902 127.774L-14.1378 142.299H-37.0695L-48.5353 122.454L-37.0695 102.608H-14.1378L-5.77148 117.11ZM-49.5011 121.892H-72.4327L-75.521 116.549L-83.8986 102.046L-75.4985 87.5101L-72.4327 82.2007H-49.5011L-38.0465 102.046L-49.5011 121.892ZM-49.5011 123.015L-38.0465 142.861L-49.5011 162.706H-72.4327L-75.521 157.363L-83.8986 142.861L-75.4985 128.335L-72.4327 123.015H-49.5011ZM-49.5011 163.829L-38.0465 183.686L-49.5011 203.532H-72.4327L-75.4985 198.211L-83.8986 183.686L-75.521 169.183L-72.4327 163.829H-49.5011ZM-49.5011 204.654L-38.0465 224.5L-49.5011 244.346H-72.4327L-75.521 239.003L-83.8986 224.5L-75.521 209.997L-72.4327 204.654H-49.5011ZM-49.5011 245.468L-38.0465 265.314L-49.5011 285.171H-72.4327L-75.4873 279.884L-83.8986 265.314L-75.521 250.823L-72.4327 245.468H-49.5011ZM-49.5011 286.294L-38.0465 306.139L-49.5011 325.985H-72.4327L-75.521 320.642L-83.8986 306.139L-75.521 291.637L-72.4327 286.294H-49.5011ZM-49.5011 327.108L-38.0465 346.954L-49.5011 366.799H-72.4327L-75.521 361.456L-83.8986 346.954L-75.521 332.451L-72.4327 327.108H-49.5011ZM-48.5353 326.546L-37.0695 306.701H-14.1378L-5.77148 321.203L-2.67201 326.546L-5.77148 331.89L-14.1378 346.392H-37.0695L-48.5353 326.546ZM-1.70622 327.108H21.2254L32.6913 346.954L21.2254 366.799H-1.70622L-13.1721 346.954L-1.70622 327.108ZM22.2024 326.546L33.657 306.701H56.5887L62.316 316.624L68.0545 326.546L62.316 336.469L56.5887 346.392H33.657L22.2024 326.546ZM63.293 337.031L69.0203 327.108H91.9519L103.418 346.954L91.9519 366.799H69.0203L63.293 356.876L57.5657 346.954L63.293 337.031ZM92.929 326.546L104.395 306.701H127.315L134.963 319.935L138.781 326.546L127.315 346.392H104.395L92.929 326.546ZM136.67 332.451L139.758 327.108H162.678L174.144 346.954L162.678 366.799H139.758L136.67 361.456L128.292 346.954L136.67 332.451ZM163.655 326.546L175.121 306.701H198.042L201.13 312.044L209.508 326.546L201.13 341.049L198.042 346.392H175.121L163.655 326.546ZM210.485 327.108H233.405L244.871 346.954L233.405 366.799H210.485L202.837 353.565L199.019 346.954L210.485 327.108ZM234.382 326.546L245.848 306.701H268.779L280.234 326.546L268.779 346.392H245.848L234.382 326.546ZM281.211 327.108H304.143L315.609 346.954L304.143 366.799H281.211L269.745 346.954L281.211 327.108ZM305.108 326.546L316.574 306.701H339.506L347.142 319.935L350.972 326.546L339.506 346.392H316.574L305.108 326.546ZM348.849 332.451L351.938 327.108H374.869L386.335 346.954L374.869 366.799H351.938L348.849 361.456L340.483 346.954L348.849 332.451ZM375.846 326.546L387.301 306.701H410.232L413.321 312.044L421.698 326.546L413.321 341.049L410.232 346.392H387.301L375.846 326.546ZM387.301 305.578L375.846 285.732L387.301 265.875H410.232L413.287 271.162L421.698 285.732L413.321 300.224L410.232 305.578H387.301ZM387.301 264.753L375.846 244.907L387.301 225.061H410.232L413.321 230.404L421.698 244.907L413.321 259.41L410.232 264.753H387.301ZM387.301 223.939L375.846 204.093L387.301 184.247H410.232L413.298 189.557L421.698 204.093L413.321 218.596L410.232 223.939H387.301ZM387.301 183.125L375.846 163.268L387.301 143.422H410.232L413.321 148.776L421.698 163.268L413.321 177.77L410.232 183.125H387.301ZM387.301 142.299L375.846 122.454L387.301 102.608H410.232L413.321 107.951L421.698 122.454L413.298 136.99L410.232 142.299H387.301ZM387.301 101.485L375.846 81.6394L387.301 61.7936H410.232L413.321 67.1367L421.698 81.6394L413.298 96.1646L410.232 101.485H387.301ZM374.869 81.0782H351.938L348.849 75.7239L340.483 61.2324L348.849 46.7297L351.938 41.3754H374.869L386.335 61.2324L374.869 81.0782ZM347.142 75.0167L350.972 81.6394L339.506 101.485H316.574L305.108 81.6394L316.574 61.7936H339.506L347.142 75.0167ZM304.143 81.0782H281.211L269.745 61.2324L281.211 41.3754H304.143L315.609 61.2324L304.143 81.0782ZM280.234 81.6394L268.779 101.485H245.848L234.382 81.6394L245.848 61.7936H268.779L280.234 81.6394ZM233.405 81.0782H210.485L202.837 67.8439L199.019 61.2324L210.485 41.3754H233.405L244.871 61.2212L233.405 81.0782ZM201.13 67.1367L209.508 81.6394L201.119 96.1646L198.042 101.485H175.121L163.655 81.6394L175.121 61.7936H198.042L201.13 67.1367ZM162.678 81.0782H139.758L136.67 75.7239L128.292 61.2324L136.67 46.7297L139.758 41.3754H162.678L174.144 61.2324L162.678 81.0782ZM134.963 75.0167L138.781 81.6394L127.315 101.485H104.395L92.929 81.6394L104.395 61.7936H127.315L134.963 75.0167ZM91.9519 81.0782H69.0203L63.293 71.1553L57.5657 61.2324L63.293 51.2983L69.0203 41.3754H91.9519L103.418 61.2324L91.9519 81.0782ZM62.316 71.7165L68.0545 81.6394L62.316 91.5623L56.5887 101.485H33.657L22.2024 81.6394L33.657 61.7936H56.5887L62.316 71.7165ZM21.2254 81.0782H-1.70622L-13.1721 61.2324L-1.70622 41.3754H21.2254L32.6913 61.2324L21.2254 81.0782ZM-5.77148 76.2851L-2.67201 81.6394L-5.74902 86.9489L-14.1378 101.485H-37.0695L-48.5353 81.6394L-37.0695 61.7936H-14.1378L-5.77148 76.2851ZM-49.5011 81.0782H-72.4327L-75.521 75.7239L-83.8986 61.2324L-75.521 46.7297L-72.4327 41.3754H-49.5011L-38.0465 61.2324L-49.5011 81.0782ZM-77.2279 75.0167L-73.4097 81.6394L-84.8756 101.485H-107.796L-119.262 81.6394L-107.796 61.7936H-84.8756L-77.2279 75.0167ZM-84.8756 102.608L-77.2279 115.842L-73.4097 122.454L-84.8756 142.299H-107.796L-119.262 122.454L-107.796 102.608H-84.8756ZM-84.8756 143.422L-77.2279 156.656L-73.4097 163.268L-84.8756 183.125H-107.796L-119.262 163.268L-107.796 143.422H-84.8756ZM-84.8756 184.247L-73.4097 204.093L-84.8756 223.939H-107.796L-119.262 204.093L-107.796 184.247H-84.8756ZM-84.8756 225.061L-77.2279 238.296L-73.4097 244.907L-84.8756 264.753H-107.796L-119.262 244.907L-107.796 225.061H-84.8756ZM-84.8756 265.875L-73.4097 285.732L-84.8756 305.578H-107.796L-119.262 285.732L-107.796 265.875H-84.8756ZM-84.8756 306.701L-77.2279 319.935L-73.4097 326.546L-84.8756 346.392H-107.796L-119.262 326.546L-107.796 306.701H-84.8756ZM-84.8756 347.515L-77.2279 360.749L-73.4097 367.361L-84.8756 387.206H-107.796L-119.262 367.361L-107.796 347.515H-84.8756ZM-75.521 373.276L-72.4327 367.922H-49.5011L-38.0465 387.768L-49.5011 407.625H-72.4327L-75.4873 402.338L-83.8986 387.768L-75.521 373.276ZM-48.5353 367.361L-37.0695 347.515H-14.1378L-5.77148 362.017L-2.67201 367.361L-5.77148 372.715L-14.1378 387.206H-37.0695L-48.5353 367.361ZM-1.70622 367.922H21.2254L32.6913 387.768L21.2254 407.625H-1.70622L-13.1721 387.768L-1.70622 367.922ZM22.2024 367.361L33.657 347.515H56.5887L62.316 357.438L68.0545 367.361L62.316 377.283L56.5887 387.206H33.657L22.2024 367.361ZM63.293 377.845L69.0203 367.922H91.9519L103.418 387.768L91.9519 407.625H69.0203L63.293 397.702L57.5657 387.768L63.293 377.845ZM92.929 367.361L104.395 347.515H127.315L134.963 360.749L138.781 367.361L127.315 387.206H104.395L92.929 367.361ZM136.67 373.276L139.758 367.922H162.678L174.144 387.768L162.678 407.625H139.758L136.703 402.338L128.292 387.768L136.67 373.276ZM163.655 367.361L175.121 347.515H198.042L201.13 352.858L209.508 367.361L201.13 381.863L198.042 387.206H175.121L163.655 367.361ZM210.485 367.922H233.405L244.871 387.768L233.405 407.625H210.485L199.019 387.768L210.485 367.922ZM234.382 367.361L245.848 347.515H268.779L280.234 367.361L268.779 387.206H245.848L234.382 367.361ZM281.211 367.922H304.143L315.609 387.768L304.143 407.625H281.211L269.745 387.768L281.211 367.922ZM305.108 367.361L316.574 347.515H339.506L347.142 360.749L350.972 367.361L339.506 387.206H316.574L305.108 367.361ZM348.849 373.276L351.938 367.922H374.869L386.335 387.768L374.869 407.625H351.938L348.894 402.338L340.483 387.768L348.849 373.276ZM375.846 367.361L387.301 347.515H410.232L413.321 352.858L421.698 367.361L413.321 381.863L410.232 387.206H387.301L375.846 367.361ZM422.675 367.922H445.596L457.062 387.768L445.596 407.625H422.675L411.209 387.768L422.675 367.922ZM422.675 366.799L415.028 353.565L411.209 346.954L422.675 327.108H445.596L457.062 346.954L445.596 366.799H422.675ZM422.675 325.985L415.028 312.751L411.209 306.139L422.675 286.294H445.596L457.062 306.139L445.596 325.985H422.675ZM422.675 285.171L411.209 265.314L422.675 245.468H445.596L457.062 265.314L445.596 285.171H422.675ZM422.675 244.346L415.028 231.112L411.209 224.5L422.675 204.654H445.596L457.062 224.5L445.596 244.346H422.675ZM422.675 203.532L411.209 183.686L422.675 163.829H445.596L457.062 183.686L445.596 203.532H422.675ZM422.675 162.706L415.028 149.483L411.209 142.861L422.675 123.015H445.596L457.062 142.861L445.596 162.706H422.675ZM422.675 121.892L415.028 108.658L411.209 102.046L422.675 82.2007H445.596L457.062 102.046L445.596 121.892H422.675ZM422.675 81.0782L415.028 67.8439L411.209 61.2324L422.675 41.3754H445.596L457.062 61.2324L445.596 81.0782H422.675ZM410.232 20.9683L413.298 26.289L421.698 40.8141L413.321 55.3168L410.232 60.6711H387.301L375.846 40.8141L387.301 20.9683H410.232ZM348.849 5.90435L351.938 0.56125H374.869L386.335 20.4071L374.869 40.2529H351.938L348.872 34.9434L340.483 20.4071L348.849 5.90435ZM339.506 20.9683L350.972 40.8141L339.506 60.6711H316.574L305.108 40.8141L316.574 20.9683H339.506ZM281.211 0.56125H304.143L315.609 20.4071L304.143 40.2529H281.211L269.745 20.4071L281.211 0.56125ZM268.779 20.9683L280.234 40.8141L268.779 60.6711H245.848L234.382 40.8141L245.848 20.9683H268.779ZM210.485 0.56125H233.405L244.871 20.4071L233.405 40.2529H210.485L199.019 20.4071L210.485 0.56125ZM198.042 20.9683L201.119 26.289L209.508 40.8141L201.13 55.3168L198.042 60.6711H175.121L163.655 40.8141L175.121 20.9683H198.042ZM136.67 5.90435L139.758 0.56125H162.678L174.144 20.4071L162.678 40.2529H139.758L136.681 34.9434L128.292 20.4071L136.67 5.90435ZM127.315 20.9683L138.781 40.8141L127.315 60.6711H104.395L92.929 40.8141L104.395 20.9683H127.315ZM63.293 10.4842L69.0203 0.56125H91.9519L103.418 20.4071L91.9519 40.2529H69.0203L63.293 30.33L57.5657 20.4071L63.293 10.4842ZM56.5887 20.9683L62.316 30.8912L68.0545 40.8141L62.316 50.737L56.5887 60.6711H33.657L22.2024 40.8141L33.657 20.9683H56.5887ZM-1.70622 0.56125H21.2254L32.6913 20.4071L21.2254 40.2529H-1.70622L-13.1721 20.4071L-1.70622 0.56125ZM-14.1378 20.9683L-5.74902 35.5047L-2.67201 40.8141L-5.77148 46.1684L-14.1378 60.6711H-37.0695L-48.5353 40.8141L-37.0695 20.9683H-14.1378ZM-75.521 5.90435L-72.4327 0.56125H-49.5011L-38.0465 20.4071L-49.5011 40.2529H-72.4327L-75.4985 34.9434L-83.8986 20.4071L-75.521 5.90435ZM-84.8756 20.9683L-73.4097 40.8141L-84.8756 60.6711H-107.796L-119.262 40.8141L-107.796 20.9683H-84.8756ZM-148.898 30.33L-154.625 20.4071L-148.898 10.4842L-143.159 0.56125H-120.239L-108.773 20.4071L-120.239 40.2529H-143.159L-148.898 30.33ZM-148.898 71.1553L-154.625 61.2324L-148.898 51.2983L-143.159 41.3754H-120.239L-108.773 61.2324L-120.239 81.0782H-143.159L-148.898 71.1553ZM-148.898 111.969L-154.625 102.046L-148.898 92.1236L-143.159 82.2007H-120.239L-108.773 102.046L-120.239 121.892H-143.159L-148.898 111.969ZM-148.898 152.783L-154.625 142.861L-148.898 132.938L-143.159 123.015H-120.239L-108.773 142.861L-120.239 162.706H-143.159L-148.898 152.783ZM-148.898 193.609L-154.625 183.686L-148.898 173.763L-143.159 163.829H-120.239L-108.773 183.686L-120.239 203.532H-143.159L-148.898 193.609ZM-148.898 234.423L-154.625 224.5L-148.898 214.577L-143.159 204.654H-120.239L-108.773 224.5L-120.239 244.346H-143.159L-148.898 234.423ZM-148.898 275.237L-154.625 265.314L-148.898 255.391L-143.159 245.468H-120.239L-108.773 265.314L-120.239 285.171H-143.159L-148.898 275.237ZM-148.898 316.062L-154.625 306.139L-148.898 296.217L-143.159 286.294H-120.239L-108.773 306.139L-120.239 325.985H-143.159L-148.898 316.062ZM-148.898 356.876L-154.625 346.954L-148.898 337.031L-143.159 327.108H-120.239L-108.773 346.954L-120.239 366.799H-143.159L-148.898 356.876ZM-148.898 397.702L-154.625 387.768L-148.898 377.845L-143.159 367.922H-120.239L-108.773 387.768L-120.239 407.625H-143.159L-148.898 397.702ZM-120.239 448.439H-143.159L-148.898 438.516L-154.625 428.593L-148.898 418.67L-143.159 408.747H-120.239L-108.773 428.593L-120.239 448.439ZM-107.796 428.032L-119.262 408.186L-107.796 388.329H-84.8756L-73.4097 408.186L-84.8756 428.032H-107.796ZM-49.5011 448.439H-72.4327L-75.521 443.096L-83.8986 428.593L-75.521 414.09L-72.4327 408.747H-49.5011L-38.0465 428.593L-49.5011 448.439ZM-37.0695 428.032L-48.5353 408.186L-37.0695 388.329H-14.1378L-5.72656 402.899L-2.67201 408.186L-5.77148 413.529L-14.1378 428.032H-37.0695ZM21.2254 448.439H-1.70622L-13.1721 428.593L-1.70622 408.747H21.2254L32.6913 428.593L21.2254 448.439ZM33.657 428.032L22.2024 408.186L33.657 388.329H56.5887L62.316 398.263L68.0545 408.186L62.316 418.109L56.5887 428.032H33.657ZM91.9519 448.439H69.0203L63.293 438.516L57.5657 428.593L63.293 418.67L69.0203 408.747H91.9519L103.418 428.593L91.9519 448.439ZM104.395 428.032L92.929 408.186L104.395 388.329H127.315L138.781 408.186L127.315 428.032H104.395ZM162.678 448.439H139.758L136.67 443.096L128.292 428.593L136.67 414.09L139.758 408.747H162.678L174.144 428.593L162.678 448.439ZM175.121 428.032L163.655 408.186L175.121 388.329H198.042L201.096 393.616L209.508 408.186L201.13 422.677L198.042 428.032H175.121ZM233.405 448.439H210.485L202.837 435.204L199.019 428.593L210.485 408.747H233.405L244.871 428.593L233.405 448.439ZM245.848 428.032L234.382 408.186L245.848 388.329H268.779L280.234 408.186L268.779 428.032H245.848ZM304.143 448.439H281.211L269.745 428.593L281.211 408.747H304.143L315.609 428.593L304.143 448.439ZM316.574 428.032L305.108 408.186L316.574 388.329H339.506L350.972 408.186L339.506 428.032H316.574ZM374.869 448.439H351.938L348.849 443.096L340.483 428.593L348.849 414.09L351.938 408.747H374.869L386.335 428.593L374.869 448.439ZM387.301 428.032L375.846 408.186L387.301 388.329H410.232L413.287 393.616L421.698 408.186L413.321 422.677L410.232 428.032H387.301ZM445.596 448.439H422.675L415.028 435.204L411.209 428.593L422.675 408.747H445.596L457.062 428.593L445.596 448.439ZM486.698 398.263L492.425 408.186L486.698 418.109L480.959 428.032H458.039L446.573 408.186L458.039 388.329H480.959L486.698 398.263ZM486.698 357.438L492.425 367.361L486.698 377.283L480.959 387.206H458.039L446.573 367.361L458.039 347.515H480.959L486.698 357.438ZM486.698 316.624L492.425 326.546L486.698 336.469L480.959 346.392H458.039L446.573 326.546L458.039 306.701H480.959L486.698 316.624ZM486.698 275.798L492.425 285.732L486.698 295.655L480.959 305.578H458.039L446.573 285.732L458.039 265.875H480.959L486.698 275.798ZM486.698 234.984L492.425 244.907L486.698 254.83L480.959 264.753H458.039L446.573 244.907L458.039 225.061H480.959L486.698 234.984ZM486.698 194.17L492.425 204.093L486.698 214.016L480.959 223.939H458.039L446.573 204.093L458.039 184.247H480.959L486.698 194.17ZM486.698 153.345L492.425 163.268L486.698 173.202L480.959 183.125H458.039L446.573 163.268L458.039 143.422H480.959L486.698 153.345ZM486.698 112.531L492.425 122.454L486.698 132.376L480.959 142.299H458.039L446.573 122.454L458.039 102.608H480.959L486.698 112.531ZM486.698 71.7165L492.425 81.6394L486.698 91.5623L480.959 101.485H458.039L446.573 81.6394L458.039 61.7936H480.959L486.698 71.7165ZM486.698 30.8912L492.425 40.8141L486.698 50.737L480.959 60.6711H458.039L446.573 40.8141L458.039 20.9683H480.959L486.698 30.8912Z" fill="url(#paint0_linear_2330_6065)"/>
</g>
<defs>
<linearGradient id="paint0_linear_2330_6065" x1="168.9" y1="3.64813" x2="168.9" y2="442.501" gradientUnits="userSpaceOnUse">
<stop stop-color="#5A367E" stop-opacity="0"/>
<stop offset="0.480769" stop-color="#301F4D" stop-opacity="0.25"/>
<stop offset="1" stop-color="#020618" stop-opacity="0"/>
</linearGradient>
<clipPath id="clip0_2330_6065">
<rect width="337.499" height="449" fill="white"/>
</clipPath>
</defs>
</svg>
