<svg width="23" height="21" viewBox="0 0 23 21" fill="none" xmlns="http://www.w3.org/2000/svg">
<path d="M9 6.00049L5 6.00049C2.79086 6.00049 1 7.79135 1 10.0005C1 12.2096 2.79086 14.0005 5 14.0005M9 6.00049L9 14.0005M9 6.00049L13.9648 2.52486C15.5944 1.38409 16.4092 0.81371 17.0874 0.843372C17.678 0.869202 18.2269 1.15498 18.5867 1.62399C19 2.16259 19 3.15717 19 5.14634L19 7.00049M9 14.0005L13.965 17.4757C15.5945 18.6163 16.4093 19.1866 17.0875 19.1569C17.6781 19.1311 18.2269 18.8453 18.5868 18.3763C19 17.8377 19 16.8432 19 14.8541L19 13.0005M9 14.0005L5 14.0005M5 14.0005L5 18.5005C5 19.3289 5.67158 20.0005 6.5 20.0005C7.32843 20.0005 8 19.3289 8 18.5005L8 14.0005M19 7.00049L19 13.0005M19 7.00049C20.6569 7.00048 22 8.34363 22 10.0005C22 11.6573 20.6569 13.0005 19 13.0005" stroke="#CBD5E1" stroke-width="1.5" stroke-linecap="round" stroke-linejoin="round"/>
</svg>
