<svg width="22" height="22" viewBox="0 0 22 22" fill="none" xmlns="http://www.w3.org/2000/svg">
<path d="M4.5 9.5L1 6.9999L2.07801 5.92193C2.96351 5.03644 3.40627 4.5937 3.93021 4.31387C4.39405 4.06614 4.90218 3.91229 5.42554 3.86114C6.01671 3.80336 6.63069 3.92616 7.85865 4.17177L9.49951 4.49997M17.4995 12.5L17.8279 14.1408C18.0737 15.3689 18.1966 15.983 18.1389 16.5743C18.0878 17.0977 17.9339 17.6059 17.6862 18.0698C17.4063 18.5939 16.9635 19.0367 16.0778 19.9224L15.0002 21L12.5002 17.5M5.99951 15.9998L7.99936 14M16.002 7.99951C16.002 9.10408 15.1065 9.99951 14.002 9.99951C12.8974 9.99951 12.002 9.10408 12.002 7.99951C12.002 6.89494 12.8974 5.99951 14.002 5.99951C15.1065 5.99951 16.002 6.89494 16.002 7.99951ZM16.1987 0.999997L15.6498 0.999997C14.6714 0.999998 14.1821 0.999998 13.7218 1.11053C13.3136 1.20853 12.9234 1.37016 12.5655 1.58949C12.1618 1.83688 11.8159 2.18282 11.1241 2.87469L5.9992 8C4.90878 9.0905 4.36357 9.63576 4.07213 10.2239C3.51761 11.343 3.51764 12.6569 4.0722 13.776C4.36367 14.3642 4.9089 14.9094 5.99936 15.9998C7.0899 17.0904 7.63517 17.6357 8.22337 17.9271C9.34251 18.4817 10.6565 18.4817 11.7756 17.9271C12.3638 17.6356 12.909 17.0903 13.9995 15.9997L19.1243 10.8745C19.8161 10.1827 20.1619 9.83679 20.4093 9.43313C20.6286 9.07526 20.7902 8.6851 20.8881 8.27697C20.9987 7.81664 20.9987 7.32749 20.9987 6.34918L20.9987 5.8C20.9987 4.11984 20.9987 3.27976 20.6717 2.63803C20.3841 2.07354 19.9251 1.6146 19.3606 1.32698C18.7189 0.999997 17.8788 0.999997 16.1987 0.999997Z" stroke="#CBD5E1" stroke-width="1.5" stroke-linecap="round" stroke-linejoin="round"/>
</svg>
