<svg width="18" height="18" viewBox="0 0 18 18" fill="none" xmlns="http://www.w3.org/2000/svg">
<path d="M8.55551 0.666016C11.2089 0.666016 13.3598 2.80439 13.3598 5.44277C13.3604 6.13415 13.2101 6.81734 12.9193 7.44461C12.6286 8.07189 12.2044 8.62814 11.6764 9.0745C11.9014 9.18562 12.1064 9.29756 12.2914 9.41034C12.6892 9.65201 13.1031 9.95174 13.5331 10.3095C13.5911 10.3577 13.639 10.4168 13.674 10.4835C13.709 10.5503 13.7305 10.6233 13.7372 10.6984C13.7438 10.7734 13.7356 10.8491 13.7128 10.9209C13.6901 10.9928 13.6534 11.0594 13.6048 11.117C13.5063 11.2339 13.3655 11.3071 13.2133 11.3205C13.0611 11.3339 12.9097 11.2865 12.7923 11.1887C12.4454 10.8951 12.0771 10.6277 11.6906 10.3887C11.3147 10.1658 10.9235 9.96997 10.5197 9.80285C9.90137 10.0777 9.23219 10.2197 8.55551 10.2195C7.80953 10.2196 7.07364 10.0471 6.40547 9.71535L6.37047 9.73201C4.74544 10.362 3.55959 11.2937 2.79374 12.5304C2.02539 13.7713 1.71122 15.1579 1.85206 16.7088C1.86499 16.8606 1.81714 17.0114 1.71901 17.1279C1.62089 17.2445 1.48051 17.3173 1.32871 17.3305C1.17701 17.3444 1.02599 17.2975 0.908809 17.2002C0.791626 17.1028 0.717859 16.963 0.703702 16.8113C0.541199 15.0179 0.911206 13.3837 1.81206 11.9296C2.60374 10.6495 3.76792 9.65451 5.29045 8.9445C4.80534 8.49931 4.41808 7.95813 4.15325 7.35531C3.88843 6.75249 3.75181 6.1012 3.75209 5.44277C3.75209 2.80439 5.90213 0.666016 8.55551 0.666016ZM14.7231 11.2437C15.0398 11.2437 15.2965 11.502 15.2965 11.8196V13.2796H16.7565C16.8321 13.2794 16.907 13.294 16.9769 13.3228C17.0468 13.3515 17.1103 13.3938 17.1639 13.4471C17.2174 13.5004 17.26 13.5638 17.289 13.6336C17.3181 13.7034 17.3331 13.7782 17.3332 13.8538C17.3325 14.0061 17.2714 14.152 17.1633 14.2593C17.0552 14.3667 16.9089 14.4267 16.7565 14.4263H15.2965V15.8871C15.2967 16.0395 15.2364 16.1857 15.1289 16.2937C15.0214 16.4016 14.8755 16.4625 14.7231 16.463C14.5708 16.4625 14.4248 16.4016 14.3173 16.2937C14.2098 16.1857 14.1496 16.0395 14.1498 15.8871V14.4263H12.6898C12.5374 14.4267 12.3911 14.3667 12.283 14.2593C12.1748 14.152 12.1137 14.0061 12.1131 13.8538C12.1131 13.5371 12.3714 13.2804 12.6898 13.2804L14.1498 13.2796V11.8196C14.1496 11.6672 14.2098 11.521 14.3173 11.413C14.4248 11.305 14.5708 11.2441 14.7231 11.2437ZM8.55635 1.8127C6.53964 1.8127 4.90461 3.43773 4.90461 5.44277C4.90461 7.44781 6.53964 9.07367 8.55551 9.07367C10.5714 9.07367 12.2064 7.44864 12.2064 5.44277C12.2064 3.4369 10.5722 1.8127 8.55635 1.8127Z" fill="white"/>
</svg>
