<svg width="20" height="20" viewBox="0 0 20 20" fill="none" xmlns="http://www.w3.org/2000/svg">
<path d="M6.6665 9.99935H9.99984M9.99984 9.99935H13.3332M9.99984 9.99935V6.66602M9.99984 9.99935V13.3327M9.99984 18.3327V18.3327C12.1711 18.3327 13.2567 18.3327 14.1374 18.055C16.0044 17.4663 17.4668 16.0039 18.0555 14.1369C18.3332 13.2562 18.3332 12.1706 18.3332 9.99935V9.99935C18.3332 7.82813 18.3332 6.74253 18.0555 5.86178C17.4668 3.9948 16.0044 2.53237 14.1374 1.94371C13.2567 1.66602 12.1711 1.66602 9.99984 1.66602V1.66602C7.82862 1.66602 6.74302 1.66602 5.86227 1.94371C3.99528 2.53237 2.53286 3.9948 1.9442 5.86178C1.6665 6.74253 1.6665 7.82813 1.6665 9.99935V9.99935C1.6665 12.1706 1.6665 13.2562 1.9442 14.1369C2.53286 16.0039 3.99528 17.4663 5.86227 18.055C6.74302 18.3327 7.82862 18.3327 9.99984 18.3327Z" stroke="#CBD5E1" stroke-width="1.5" stroke-linecap="round" stroke-linejoin="round"/>
</svg>
