<svg width="20" height="20" viewBox="0 0 20 20" fill="none" xmlns="http://www.w3.org/2000/svg">
<path d="M10.0002 3.3332C9.41935 3.3332 8.8445 3.1151 8.4888 2.65595L8.29022 2.39962C7.67771 1.60898 6.57531 1.39235 5.70916 1.89242L5.12451 2.22997C4.25836 2.73004 3.89477 3.79306 4.27323 4.71883L4.39584 5.01876C4.61574 5.55669 4.51823 6.16085 4.22699 6.66374V6.66374C3.93602 7.16619 3.45882 7.55854 2.88352 7.63699L2.56327 7.68066C1.5723 7.81579 0.833496 8.66218 0.833496 9.66232V10.3374C0.833496 11.3376 1.5723 12.1839 2.56327 12.3191L2.88355 12.3628C3.45883 12.4412 3.93602 12.8335 4.22699 13.336V13.336C4.51821 13.8389 4.61572 14.443 4.39582 14.9809L4.27321 15.2808C3.89475 16.2066 4.25835 17.2696 5.12449 17.7697L5.70915 18.1073C6.5753 18.6073 7.67769 18.3907 8.2902 17.6001L8.48871 17.3438C8.84444 16.8846 9.41932 16.6665 10.0002 16.6665V16.6665V16.6665C10.5811 16.6665 11.156 16.8847 11.5118 17.3439L11.7101 17.5999C12.3226 18.3905 13.425 18.6072 14.2912 18.1071L14.8758 17.7696C15.742 17.2695 16.1056 16.2065 15.7271 15.2807L15.6045 14.9808C15.3846 14.4429 15.4821 13.8388 15.7733 13.336V13.336C16.0643 12.8335 16.5415 12.4412 17.1167 12.3628L17.4371 12.3191C18.428 12.184 19.1668 11.3376 19.1668 10.3374V9.66232C19.1668 8.66218 18.428 7.81579 17.4371 7.68066L17.1168 7.63698C16.5415 7.55854 16.0643 7.1662 15.7733 6.66376V6.66376C15.4821 6.16089 15.3846 5.55675 15.6045 5.01885L15.7271 4.71898C16.1056 3.79321 15.742 2.73019 14.8758 2.23012L14.2912 1.89257C13.425 1.3925 12.3226 1.60913 11.7101 2.39977L11.5117 2.65588C11.1559 3.11508 10.581 3.3332 10.0002 3.3332V3.3332V3.3332Z" stroke="#6875F5" stroke-width="1.5" stroke-linecap="round" stroke-linejoin="round"/>
<path d="M12.5002 9.99984C12.5002 11.3805 11.3809 12.4998 10.0002 12.4998C8.61945 12.4998 7.50016 11.3805 7.50016 9.99984C7.50016 8.61913 8.61945 7.49984 10.0002 7.49984C11.3809 7.49984 12.5002 8.61913 12.5002 9.99984Z" stroke="#6875F5" stroke-width="1.5" stroke-linecap="round" stroke-linejoin="round"/>
</svg>
