<svg width="18" height="18" viewBox="0 0 18 18" fill="none" xmlns="http://www.w3.org/2000/svg">
<path d="M9 0.9375C13.4528 0.9375 17.0625 4.5472 17.0625 9C17.0625 13.4528 13.4528 17.0625 9 17.0625C4.5472 17.0625 0.9375 13.4528 0.9375 9C0.9375 4.5472 4.5472 0.9375 9 0.9375ZM9 10.875C8.37868 10.875 7.875 11.3787 7.875 12C7.875 12.6213 8.37868 13.125 9 13.125C9.62132 13.125 10.125 12.6213 10.125 12C10.125 11.3787 9.62132 10.875 9 10.875ZM9 5.25C7.75736 5.25 6.75 6.25736 6.75 7.5V7.875C6.75 8.28921 7.08579 8.625 7.5 8.625C7.91421 8.625 8.25 8.28921 8.25 7.875V7.5C8.25 7.08579 8.58579 6.75 9 6.75C9.41421 6.75 9.75 7.08579 9.75 7.5V7.59082C9.75 7.81378 9.66152 8.02785 9.50391 8.18555L8.46973 9.21973C8.17683 9.51262 8.17683 9.98738 8.46973 10.2803C8.76262 10.5732 9.23738 10.5732 9.53027 10.2803L10.5645 9.24609C11.0034 8.80709 11.25 8.21161 11.25 7.59082V7.5C11.25 6.25736 10.2426 5.25 9 5.25Z" fill="#64748B"/>
</svg>
