<svg width="18" height="17" viewBox="0 0 18 17" fill="none" xmlns="http://www.w3.org/2000/svg">
<path d="M6.22234 8.49935C6.22234 8.13455 6.29419 7.77332 6.43379 7.43629C6.5734 7.09925 6.77802 6.79302 7.03597 6.53507C7.29392 6.27711 7.60016 6.07249 7.93719 5.93289C8.27422 5.79328 8.63545 5.72143 9.00025 5.72143C9.36506 5.72143 9.72628 5.79328 10.0633 5.93289C10.4003 6.07249 10.7066 6.27711 10.9645 6.53507C11.2225 6.79302 11.4271 7.09925 11.5667 7.43629C11.7063 7.77332 11.7782 8.13455 11.7782 8.49935C11.7782 9.2361 11.4855 9.94267 10.9645 10.4636C10.4436 10.9846 9.737 11.2773 9.00025 11.2773C8.2635 11.2773 7.55693 10.9846 7.03597 10.4636C6.51501 9.94267 6.22234 9.2361 6.22234 8.49935ZM4.72067 8.49935C4.72067 9.0613 4.83135 9.61774 5.0464 10.1369C5.26145 10.6561 5.57665 11.1278 5.97401 11.5252C6.37137 11.9225 6.8431 12.2377 7.36227 12.4528C7.88144 12.6678 8.43789 12.7785 8.99984 12.7785C9.56179 12.7785 10.1182 12.6678 10.6374 12.4528C11.1566 12.2377 11.6283 11.9225 12.0257 11.5252C12.423 11.1278 12.7382 10.6561 12.9533 10.1369C13.1683 9.61774 13.279 9.0613 13.279 8.49935C13.279 7.36444 12.8282 6.27602 12.0257 5.47352C11.2232 4.67102 10.1347 4.22018 8.99984 4.22018C7.86493 4.22018 6.77651 4.67102 5.97401 5.47352C5.17151 6.27602 4.72067 7.36444 4.72067 8.49935ZM12.4482 4.05102C12.4482 4.2488 12.5068 4.44214 12.6167 4.60659C12.7266 4.77104 12.8828 4.89921 13.0655 4.9749C13.2482 5.05058 13.4493 5.07039 13.6433 5.0318C13.8372 4.99322 14.0154 4.89797 14.1553 4.75812C14.2951 4.61827 14.3904 4.44009 14.429 4.24611C14.4675 4.05212 14.4477 3.85106 14.3721 3.66833C14.2964 3.48561 14.1682 3.32943 14.0037 3.21955C13.8393 3.10966 13.646 3.05102 13.4482 3.05102C13.183 3.05102 12.9286 3.15637 12.7411 3.34391C12.5535 3.53145 12.4482 3.7858 12.4482 4.05102ZM5.63317 15.2827C4.82067 15.2452 4.379 15.1102 4.08567 14.996C3.72368 14.8624 3.39622 14.6494 3.12734 14.3727C2.8506 14.1038 2.6376 13.7763 2.504 13.4144C2.389 13.121 2.254 12.6793 2.21734 11.8668C2.1765 10.9885 2.169 10.7252 2.169 8.50018C2.169 6.27518 2.17734 6.01102 2.21734 5.13185C2.254 4.31935 2.39067 3.87852 2.504 3.58435C2.65484 3.19518 2.83567 2.91768 3.12734 2.62602C3.419 2.33435 3.69567 2.15352 4.08567 2.00268C4.379 1.88768 4.82067 1.75268 5.63317 1.71602C6.5115 1.67435 6.77484 1.66602 8.99984 1.66602C11.2248 1.66602 11.4882 1.67435 12.3673 1.71518C13.1798 1.75185 13.6207 1.88852 13.9148 2.00185C14.304 2.15185 14.5815 2.33352 14.8732 2.62518C15.1648 2.91685 15.3457 3.19435 15.4973 3.58352C15.6115 3.87685 15.7473 4.31852 15.7832 5.13102C15.824 6.01018 15.8323 6.27268 15.8323 8.49852C15.8323 10.7235 15.824 10.9869 15.7832 11.866C15.7465 12.6785 15.6107 13.1202 15.4973 13.4135C15.3637 13.7755 15.1507 14.103 14.874 14.3719C14.6051 14.6486 14.2777 14.8616 13.9157 14.9952C13.6215 15.1094 13.1798 15.2452 12.3673 15.2818C11.489 15.3218 11.2257 15.3302 8.99984 15.3302C6.77484 15.3302 6.5115 15.3218 5.63317 15.2818M5.564 0.216016C4.67734 0.256849 4.07067 0.397682 3.5415 0.603516C2.98523 0.812529 2.48128 1.14044 2.06484 1.56435C1.64093 1.98079 1.31302 2.48474 1.104 3.04102C0.898171 3.57102 0.757337 4.17685 0.717337 5.06352C0.674837 5.95185 0.666504 6.23602 0.666504 8.49935C0.666504 10.7627 0.675671 11.0468 0.716504 11.9352C0.757337 12.8218 0.898171 13.4277 1.104 13.9577C1.31312 14.5137 1.64103 15.0173 2.06484 15.4335C2.4812 15.8577 2.98515 16.1859 3.5415 16.3952C4.0715 16.601 4.67734 16.7418 5.564 16.7818C6.45317 16.8227 6.7365 16.8327 8.99984 16.8327C11.2632 16.8327 11.5473 16.8235 12.4357 16.7827C13.3223 16.7418 13.9282 16.601 14.4582 16.3952C15.0142 16.1858 15.5179 15.8576 15.934 15.4335C16.358 15.0176 16.6862 14.5143 16.8957 13.9585C17.1015 13.4277 17.2432 12.8218 17.2823 11.9352C17.3232 11.046 17.3323 10.7627 17.3323 8.49935C17.3323 6.23602 17.3232 5.95185 17.2823 5.06352C17.2423 4.17685 17.1015 3.57018 16.8957 3.04102C16.6864 2.48467 16.3582 1.98071 15.934 1.56435C15.518 1.14064 15.0147 0.812744 14.459 0.603516C13.9282 0.397682 13.3223 0.256016 12.4365 0.216849C11.5473 0.176016 11.264 0.166016 8.99984 0.166016C6.73567 0.166016 6.45234 0.175182 5.56317 0.216016" fill="url(#paint0_radial_2707_1506)"/>
<path d="M6.22234 8.49935C6.22234 8.13455 6.29419 7.77332 6.43379 7.43629C6.5734 7.09925 6.77802 6.79302 7.03597 6.53507C7.29392 6.27711 7.60016 6.07249 7.93719 5.93289C8.27422 5.79328 8.63545 5.72143 9.00025 5.72143C9.36506 5.72143 9.72628 5.79328 10.0633 5.93289C10.4003 6.07249 10.7066 6.27711 10.9645 6.53507C11.2225 6.79302 11.4271 7.09925 11.5667 7.43629C11.7063 7.77332 11.7782 8.13455 11.7782 8.49935C11.7782 9.2361 11.4855 9.94267 10.9645 10.4636C10.4436 10.9846 9.737 11.2773 9.00025 11.2773C8.2635 11.2773 7.55693 10.9846 7.03597 10.4636C6.51501 9.94267 6.22234 9.2361 6.22234 8.49935ZM4.72067 8.49935C4.72067 9.0613 4.83135 9.61774 5.0464 10.1369C5.26145 10.6561 5.57665 11.1278 5.97401 11.5252C6.37137 11.9225 6.8431 12.2377 7.36227 12.4528C7.88144 12.6678 8.43789 12.7785 8.99984 12.7785C9.56179 12.7785 10.1182 12.6678 10.6374 12.4528C11.1566 12.2377 11.6283 11.9225 12.0257 11.5252C12.423 11.1278 12.7382 10.6561 12.9533 10.1369C13.1683 9.61774 13.279 9.0613 13.279 8.49935C13.279 7.36444 12.8282 6.27602 12.0257 5.47352C11.2232 4.67102 10.1347 4.22018 8.99984 4.22018C7.86493 4.22018 6.77651 4.67102 5.97401 5.47352C5.17151 6.27602 4.72067 7.36444 4.72067 8.49935ZM12.4482 4.05102C12.4482 4.2488 12.5068 4.44214 12.6167 4.60659C12.7266 4.77104 12.8828 4.89921 13.0655 4.9749C13.2482 5.05058 13.4493 5.07039 13.6433 5.0318C13.8372 4.99322 14.0154 4.89797 14.1553 4.75812C14.2951 4.61827 14.3904 4.44009 14.429 4.24611C14.4675 4.05212 14.4477 3.85106 14.3721 3.66833C14.2964 3.48561 14.1682 3.32943 14.0037 3.21955C13.8393 3.10966 13.646 3.05102 13.4482 3.05102C13.183 3.05102 12.9286 3.15637 12.7411 3.34391C12.5535 3.53145 12.4482 3.7858 12.4482 4.05102ZM5.63317 15.2827C4.82067 15.2452 4.379 15.1102 4.08567 14.996C3.72368 14.8624 3.39622 14.6494 3.12734 14.3727C2.8506 14.1038 2.6376 13.7763 2.504 13.4144C2.389 13.121 2.254 12.6793 2.21734 11.8668C2.1765 10.9885 2.169 10.7252 2.169 8.50018C2.169 6.27518 2.17734 6.01102 2.21734 5.13185C2.254 4.31935 2.39067 3.87852 2.504 3.58435C2.65484 3.19518 2.83567 2.91768 3.12734 2.62602C3.419 2.33435 3.69567 2.15352 4.08567 2.00268C4.379 1.88768 4.82067 1.75268 5.63317 1.71602C6.5115 1.67435 6.77484 1.66602 8.99984 1.66602C11.2248 1.66602 11.4882 1.67435 12.3673 1.71518C13.1798 1.75185 13.6207 1.88852 13.9148 2.00185C14.304 2.15185 14.5815 2.33352 14.8732 2.62518C15.1648 2.91685 15.3457 3.19435 15.4973 3.58352C15.6115 3.87685 15.7473 4.31852 15.7832 5.13102C15.824 6.01018 15.8323 6.27268 15.8323 8.49852C15.8323 10.7235 15.824 10.9869 15.7832 11.866C15.7465 12.6785 15.6107 13.1202 15.4973 13.4135C15.3637 13.7755 15.1507 14.103 14.874 14.3719C14.6051 14.6486 14.2777 14.8616 13.9157 14.9952C13.6215 15.1094 13.1798 15.2452 12.3673 15.2818C11.489 15.3218 11.2257 15.3302 8.99984 15.3302C6.77484 15.3302 6.5115 15.3218 5.63317 15.2818M5.564 0.216016C4.67734 0.256849 4.07067 0.397682 3.5415 0.603516C2.98523 0.812529 2.48128 1.14044 2.06484 1.56435C1.64093 1.98079 1.31302 2.48474 1.104 3.04102C0.898171 3.57102 0.757337 4.17685 0.717337 5.06352C0.674837 5.95185 0.666504 6.23602 0.666504 8.49935C0.666504 10.7627 0.675671 11.0468 0.716504 11.9352C0.757337 12.8218 0.898171 13.4277 1.104 13.9577C1.31312 14.5137 1.64103 15.0173 2.06484 15.4335C2.4812 15.8577 2.98515 16.1859 3.5415 16.3952C4.0715 16.601 4.67734 16.7418 5.564 16.7818C6.45317 16.8227 6.7365 16.8327 8.99984 16.8327C11.2632 16.8327 11.5473 16.8235 12.4357 16.7827C13.3223 16.7418 13.9282 16.601 14.4582 16.3952C15.0142 16.1858 15.5179 15.8576 15.934 15.4335C16.358 15.0176 16.6862 14.5143 16.8957 13.9585C17.1015 13.4277 17.2432 12.8218 17.2823 11.9352C17.3232 11.046 17.3323 10.7627 17.3323 8.49935C17.3323 6.23602 17.3232 5.95185 17.2823 5.06352C17.2423 4.17685 17.1015 3.57018 16.8957 3.04102C16.6864 2.48467 16.3582 1.98071 15.934 1.56435C15.518 1.14064 15.0147 0.812744 14.459 0.603516C13.9282 0.397682 13.3223 0.256016 12.4365 0.216849C11.5473 0.176016 11.264 0.166016 8.99984 0.166016C6.73567 0.166016 6.45234 0.175182 5.56317 0.216016" fill="url(#paint1_radial_2707_1506)"/>
<defs>
<radialGradient id="paint0_radial_2707_1506" cx="0" cy="0" r="1" gradientUnits="userSpaceOnUse" gradientTransform="translate(5.09337 18.1163) rotate(-90) scale(16.5179 15.3622)">
<stop stop-color="#FFDD55"/>
<stop offset="0.1" stop-color="#FFDD55"/>
<stop offset="0.5" stop-color="#FF543E"/>
<stop offset="1" stop-color="#C837AB"/>
</radialGradient>
<radialGradient id="paint1_radial_2707_1506" cx="0" cy="0" r="1" gradientTransform="matrix(1.44912 7.23998 -29.8419 5.9736 -2.12509 1.3666)" gradientUnits="userSpaceOnUse">
<stop stop-color="#3771C8"/>
<stop offset="0.128" stop-color="#3771C8"/>
<stop offset="1" stop-color="#6600FF" stop-opacity="0"/>
</radialGradient>
</defs>
</svg>
