<svg width="12" height="13" viewBox="0 0 12 13" fill="none" xmlns="http://www.w3.org/2000/svg">
<path d="M4.16634 2.33268H2.96634C2.21967 2.33268 1.84634 2.33268 1.56101 2.47802C1.31014 2.60584 1.10617 2.80981 0.978341 3.06068C0.833008 3.34602 0.833008 3.71935 0.833008 4.46602V9.53268C0.833008 10.2793 0.833008 10.6527 0.978341 10.938C1.10617 11.1889 1.31014 11.3929 1.56101 11.5207C1.84567 11.666 2.21901 11.666 2.96434 11.666H8.03501C8.78034 11.666 9.15301 11.666 9.43767 11.5207C9.68901 11.3927 9.89301 11.1887 10.021 10.938C10.1663 10.6527 10.1663 10.28 10.1663 9.53468V8.33268M10.833 4.99935V1.66602M10.833 1.66602H7.49967M10.833 1.66602L6.16634 6.33268" stroke="white" stroke-width="1.5" stroke-linecap="round" stroke-linejoin="round"/>
</svg>
