<svg width="20" height="20" viewBox="0 0 20 20" fill="none" xmlns="http://www.w3.org/2000/svg">
<path d="M2.0835 7.91667L3.13786 13.1885C3.50439 15.0212 3.68766 15.9375 4.16612 16.6229C4.58804 17.2274 5.16877 17.7034 5.8442 17.9986C6.61015 18.3334 7.54463 18.3334 9.41358 18.3334H10.5867C12.4557 18.3334 13.3902 18.3334 14.1561 17.9986C14.8316 17.7034 15.4123 17.2274 15.8342 16.6229C16.3127 15.9375 16.4959 15.0212 16.8625 13.1885L17.9168 7.91667M0.833496 9.16667L5.47468 4.52548C7.05875 2.94142 7.85078 2.14938 8.76409 1.85263C9.56747 1.5916 10.4329 1.5916 11.2362 1.85263C12.1495 2.14938 12.9416 2.94142 14.5256 4.52548L19.1668 9.16667M12.5002 10C12.5002 11.3807 11.3809 12.5 10.0002 12.5C8.61945 12.5 7.50016 11.3807 7.50016 10C7.50016 8.61929 8.61945 7.5 10.0002 7.5C11.3809 7.5 12.5002 8.61929 12.5002 10Z" stroke="#CBD5E1" stroke-width="1.5" stroke-linecap="round" stroke-linejoin="round"/>
</svg>
