<svg width="20" height="20" viewBox="0 0 20 20" fill="none" xmlns="http://www.w3.org/2000/svg">
<path d="M12.5002 13.3327C15.7218 13.3327 18.3335 10.721 18.3335 7.49935C18.3335 6.92021 18.2491 6.36077 18.0919 5.83268L16.1294 7.79523L16.1294 7.79524C15.6191 8.30547 15.364 8.56058 15.0919 8.70254C14.5123 9.00496 13.8214 9.00496 13.2417 8.70254C12.9696 8.56058 12.7145 8.30547 12.2043 7.79524L12.2043 7.79523L12.2043 7.79522C11.694 7.285 11.4389 7.02988 11.297 6.75779C10.9945 6.17813 10.9945 5.48724 11.297 4.90757C11.4389 4.63548 11.694 4.38036 12.2043 3.87013L14.1668 1.90758C13.6387 1.75041 13.0793 1.66602 12.5002 1.66602C9.2785 1.66602 6.66683 4.27769 6.66683 7.49935C6.66683 8.39401 6.72355 9.6583 7.0835 10.416L2.0835 15.416C1.39314 16.1064 1.39314 17.2257 2.0835 17.916C2.77385 18.6064 3.89314 18.6064 4.5835 17.916L9.5835 12.916C10.3412 13.276 11.6055 13.3327 12.5002 13.3327Z" stroke="#CBD5E1" stroke-width="1.5" stroke-linecap="round" stroke-linejoin="round"/>
</svg>
