<svg width="28" height="28" viewBox="0 0 28 28" fill="none" xmlns="http://www.w3.org/2000/svg">
<rect width="28" height="28" rx="14" fill="#0F172A"/>
<path d="M17.9987 10.0007C17.9987 10.1847 17.8495 10.334 17.6654 10.334C17.4813 10.334 17.332 10.1847 17.332 10.0007M17.9987 10.0007C17.9987 9.81656 17.8495 9.66732 17.6654 9.66732C17.4813 9.66732 17.332 9.81656 17.332 10.0007M17.9987 10.0007H17.332M16.6654 14.0007C16.6654 15.4734 15.4715 16.6673 13.9987 16.6673C12.5259 16.6673 11.332 15.4734 11.332 14.0007C11.332 12.5279 12.5259 11.334 13.9987 11.334C15.4715 11.334 16.6654 12.5279 16.6654 14.0007ZM13.9987 20.6673C12.4487 20.6673 11.6738 20.6673 11.0379 20.4969C9.31248 20.0346 7.96474 18.6869 7.5024 16.9614C7.33203 16.3256 7.33203 15.5506 7.33203 14.0007C7.33203 12.4507 7.33203 11.6757 7.5024 11.0399C7.96474 9.31443 9.31248 7.96669 11.0379 7.50436C11.6738 7.33398 12.4487 7.33398 13.9987 7.33398C15.5487 7.33398 16.3236 7.33398 16.9595 7.50436C18.6849 7.96669 20.0327 9.31443 20.495 11.0399C20.6654 11.6757 20.6654 12.4507 20.6654 14.0007C20.6654 15.5506 20.6654 16.3256 20.495 16.9614C20.0327 18.6869 18.6849 20.0346 16.9595 20.4969C16.3236 20.6673 15.5487 20.6673 13.9987 20.6673Z" stroke="#CBD5E1" stroke-width="1.2" stroke-linecap="round" stroke-linejoin="round"/>
</svg>
