<svg width="10" height="9" viewBox="0 0 10 9" fill="none" xmlns="http://www.w3.org/2000/svg">
<path fill-rule="evenodd" clip-rule="evenodd" d="M6.52687 0.250781C7.68567 0.0400901 8.84746 0.604199 9.39854 1.64512L9.50828 1.85241C10.1486 3.06183 9.89645 4.55056 8.89365 5.48173L7.483 6.79161L5.46255 8.44471C5.17328 8.68139 4.75729 8.68138 4.46802 8.44471L2.45251 6.79566L1.12324 5.64362C-0.0345225 4.64023 -0.27657 2.93743 0.555722 1.65116L0.642085 1.51769C1.27492 0.539674 2.44087 0.0473404 3.58315 0.275796C3.93022 0.34521 4.24897 0.515804 4.49925 0.76608L4.96529 1.23211L5.30798 0.889426C5.63987 0.557533 6.06508 0.334744 6.52687 0.250781ZM8.74106 1.9932C8.34169 1.23884 7.49974 0.830033 6.65995 0.982721C6.34704 1.03961 6.05891 1.19058 5.83402 1.41547L4.96529 2.2842L3.97321 1.29212C3.82678 1.1457 3.6403 1.0459 3.43725 1.00529C2.59422 0.836683 1.73372 1.20004 1.26667 1.92184L1.18031 2.05531C0.549468 3.03025 0.732929 4.3209 1.61046 5.08143L2.93177 6.22656L4.93911 7.86893C4.95434 7.88139 4.97623 7.88139 4.99146 7.86893L6.99387 6.2306L8.38744 4.93657C9.14343 4.23458 9.3335 3.11225 8.85079 2.20049L8.74106 1.9932Z" fill="url(#paint0_linear_160_22735)"/>
<defs>
<linearGradient id="paint0_linear_160_22735" x1="0.0625" y1="4.41462" x2="9.85967" y2="4.41462" gradientUnits="userSpaceOnUse">
<stop stop-color="#B36AE9"/>
<stop offset="0.496514" stop-color="#EC6189"/>
<stop offset="1" stop-color="#FCA74B"/>
</linearGradient>
</defs>
</svg>
