<svg width="11" height="9" viewBox="0 0 11 9" fill="none" xmlns="http://www.w3.org/2000/svg">
<path fill-rule="evenodd" clip-rule="evenodd" d="M6.89406 0.23125C8.05286 0.0205588 9.21465 0.584668 9.76573 1.62559L9.87547 1.83287C10.5158 3.0423 10.2636 4.53102 9.26084 5.46219L7.85019 6.77208L5.82974 8.42518C5.54047 8.66185 5.12448 8.66185 4.83521 8.42518L2.8197 6.77612L1.49042 5.62409C0.332665 4.6207 0.0906178 2.9179 0.922909 1.63163L1.00927 1.49816C1.64211 0.520143 2.80805 0.0278091 3.95033 0.256265C4.2974 0.325679 4.61616 0.496273 4.86644 0.746549L5.33247 1.21258L5.67516 0.869894C6.00705 0.538002 6.43226 0.315213 6.89406 0.23125ZM9.10824 1.97367C8.70888 1.21931 7.86692 0.810501 7.02714 0.963189C6.71422 1.02008 6.4261 1.17105 6.20121 1.39594L5.33247 2.26467L4.34039 1.27259C4.19397 1.12617 4.00749 1.02637 3.80444 0.985758C2.96141 0.817152 2.10091 1.18051 1.63386 1.90231L1.5475 2.03578C0.916655 3.01072 1.10012 4.30137 1.97765 5.0619L3.29895 6.20703L5.3063 7.8494C5.32153 7.86186 5.34342 7.86186 5.35864 7.8494L7.36106 6.21107L8.75462 4.91704C9.51062 4.21505 9.70068 3.09272 9.21798 2.18095L9.10824 1.97367Z" fill="#CBD5E1"/>
</svg>
