<svg width="26" height="26" viewBox="0 0 26 26" fill="none" xmlns="http://www.w3.org/2000/svg">
<path fill-rule="evenodd" clip-rule="evenodd" d="M21.2191 0.683864L21.5591 0.72653C22.4578 0.85053 23.6471 1.0172 24.3204 1.69186C24.8724 2.24253 25.0844 3.13853 25.2111 3.93853L25.2858 4.4532C25.4538 5.66653 25.4978 7.25586 25.2111 9.0212C24.6458 12.5052 22.7911 16.6625 18.1338 19.8812C18.1084 20.1319 18.1071 20.3852 18.1124 20.6385L18.1258 21.0172C18.1471 21.5999 18.1684 22.1825 18.0058 22.7479C17.7524 23.6279 16.8498 24.2079 16.0058 24.6239L15.5924 24.8199L15.0591 25.0545C14.0618 25.4785 12.7151 25.9132 11.8711 25.0679C11.3644 24.5625 11.1564 23.8212 10.9871 23.0839L10.9244 22.8079C10.8528 22.4596 10.7638 22.1152 10.6578 21.7759C10.5911 21.5803 10.5191 21.3825 10.4418 21.1825C10.3566 21.287 10.2663 21.3872 10.1711 21.4825C9.71109 21.9425 9.02442 22.2639 8.45909 22.4892C7.84175 22.7332 7.14309 22.9465 6.49642 23.1225L6.16442 23.2105L5.52842 23.3692L4.95242 23.5025L4.26309 23.6492L3.83242 23.7332C3.61763 23.773 3.3964 23.7599 3.18779 23.6951C2.97918 23.6303 2.78947 23.5157 2.63501 23.3613C2.48055 23.2068 2.36599 23.0171 2.30119 22.8085C2.2364 22.5999 2.22332 22.3787 2.26309 22.1639L2.37775 21.5892L2.58309 20.6585L2.74842 19.9785L2.87375 19.4985C3.04975 18.8532 3.26309 18.1545 3.50842 17.5385C3.73242 16.9719 4.05375 16.2852 4.51375 15.8252L4.62042 15.7225L4.53509 15.6879C4.30719 15.6013 4.07638 15.5226 3.84309 15.4519L3.47375 15.3385C2.54842 15.0585 1.55909 14.7572 0.944421 14.1412C0.197754 13.3959 0.449754 12.2612 0.809754 11.3172L0.956421 10.9519L1.19242 10.4185L1.38842 10.0052C1.80442 9.16253 2.38442 8.25986 3.26442 8.00653C3.73109 7.8732 4.21642 7.8652 4.70442 7.87853L4.99775 7.88786C5.37909 7.9012 5.75909 7.91586 6.13109 7.87986C9.34975 3.2212 13.5071 1.36653 16.9911 0.801197C18.3887 0.571964 19.8109 0.532496 21.2191 0.683864ZM8.13642 17.5839C7.92664 17.4284 7.67583 17.3379 7.4151 17.3237C7.15437 17.3095 6.8952 17.3721 6.66975 17.5039L6.52309 17.6025L6.39909 17.7132L6.23242 17.9239C5.88575 18.4252 5.68842 19.1185 5.53509 19.7665L5.39109 20.3905L5.32309 20.6745L5.57775 20.6132L6.13509 20.4852C6.90575 20.3052 7.76042 20.0719 8.28575 19.5985C8.51417 19.3702 8.65196 19.0668 8.67354 18.7446C8.69512 18.4223 8.59902 18.1032 8.40309 17.8465L8.29375 17.7212L8.26175 17.6905L8.13642 17.5839ZM17.7138 8.2852C17.4662 8.03752 17.1722 7.84104 16.8487 7.70697C16.5252 7.57289 16.1784 7.50386 15.8282 7.50379C15.478 7.50373 15.1312 7.57265 14.8077 7.70661C14.4841 7.84057 14.1901 8.03694 13.9424 8.28453C13.6947 8.53211 13.4983 8.82606 13.3642 9.14958C13.2301 9.4731 13.1611 9.81986 13.161 10.1701C13.161 10.5203 13.2299 10.867 13.3638 11.1906C13.4978 11.5142 13.6942 11.8082 13.9418 12.0559C14.4418 12.5561 15.12 12.8371 15.8273 12.8373C16.5345 12.8374 17.2129 12.5566 17.7131 12.0565C18.2133 11.5565 18.4944 10.8783 18.4945 10.171C18.4946 9.46374 18.2138 8.78539 17.7138 8.2852Z" fill="url(#paint0_linear_160_22103)"/>
<defs>
<linearGradient id="paint0_linear_160_22103" x1="0.844816" y1="14.2244" x2="25.611" y2="14.2244" gradientUnits="userSpaceOnUse">
<stop stop-color="#00F090"/>
<stop offset="1" stop-color="#009EFB"/>
</linearGradient>
</defs>
</svg>
