<svg width="44" height="45" viewBox="0 0 44 45" fill="none" xmlns="http://www.w3.org/2000/svg">
<rect y="0.5" width="44" height="44" rx="10" fill="black"/>
<path d="M12.5659 27.24C12.7609 25.6233 13.4242 24.7166 14.6742 23.79C16.4626 22.5316 18.6976 23.2416 18.6976 23.2416V19.025C19.2392 19.0083 19.7826 19.0416 20.3209 19.12V24.55C20.3209 24.55 18.0876 23.8383 16.2992 25.095C15.0492 26.0233 14.3842 26.9283 14.1892 28.5466C14.1842 29.425 14.3492 30.5733 15.1076 31.5666C14.9116 31.4653 14.7203 31.3552 14.5342 31.2366C12.8626 30.115 12.5576 28.43 12.5659 27.24ZM29.5459 11.2233C28.3159 9.87331 27.8492 8.51331 27.6809 7.55664H29.2309C29.2309 7.55664 28.9192 10.0666 31.1676 12.53L31.2009 12.5633C30.5971 12.1845 30.0409 11.7346 29.5442 11.2233H29.5459ZM37.0009 15.045V20.365C37.0009 20.365 35.0276 20.2883 33.5659 19.915C31.5242 19.3966 30.2126 18.5983 30.2126 18.5983C30.2126 18.5983 29.3059 18.03 29.2326 17.99V28.9766C29.2326 29.5883 29.0659 31.115 28.5542 32.39C27.8876 34.0566 26.8592 35.15 26.6709 35.3733C26.6709 35.3733 25.4176 36.8533 23.2109 37.8483C21.2209 38.7483 19.4742 38.725 18.9509 38.7483C18.9509 38.7483 15.9309 38.8666 13.2126 37.1C12.6271 36.7124 12.0786 36.2717 11.5742 35.7833L11.5876 35.7933C14.3059 37.56 17.3259 37.44 17.3259 37.44C17.8492 37.4166 19.5959 37.44 21.5859 36.5416C23.7909 35.545 25.0442 34.0666 25.0442 34.0666C25.2326 33.8433 26.2659 32.75 26.9292 31.0816C27.3404 29.9886 27.5695 28.8355 27.6076 27.6683V16.6833C27.6809 16.7233 28.5859 17.2916 28.5859 17.2916C28.5859 17.2916 29.8992 18.0916 31.9392 18.61C33.4026 18.9816 35.3776 19.06 35.3776 19.06V14.89C36.0526 15.0416 36.6276 15.0833 37.0009 15.045Z" fill="#FD355A"/>
<path d="M35.3768 14.8919V19.0586C35.3768 19.0586 33.4018 18.9819 31.9402 18.6086C29.8985 18.0903 28.5868 17.2919 28.5868 17.2919C28.5868 17.2919 27.6802 16.7236 27.6068 16.6836V27.6703C27.6068 28.2819 27.4402 29.8103 26.9285 31.0836C26.2618 32.7503 25.2335 33.8453 25.0452 34.0686C25.0452 34.0686 23.7918 35.5486 21.5852 36.5436C19.5952 37.4436 17.8485 37.4203 17.3252 37.4436C17.3252 37.4436 14.3068 37.5619 11.5868 35.7953L11.5735 35.7853C11.2875 35.5082 11.0176 35.2149 10.7652 34.9069C10.1248 34.0977 9.60801 33.1979 9.23182 32.2369C9.01682 31.6169 8.56516 30.1286 8.62682 28.6853C8.73682 26.1403 9.63182 24.5786 9.86849 24.1853C10.5013 23.112 11.317 22.1576 12.2785 21.3653C13.1383 20.6716 14.1054 20.1228 15.1418 19.7403C16.2725 19.2861 17.4769 19.0432 18.6952 19.0236V23.2436C18.6952 23.2436 16.4618 22.5353 14.6735 23.7903C13.4235 24.7186 12.7602 25.6236 12.5652 27.2403C12.5568 28.4319 12.8618 30.1153 14.5318 31.2403C14.7268 31.3619 14.9185 31.4719 15.1052 31.5686C15.3968 31.9469 15.7535 32.2769 16.1568 32.5469C17.7902 33.5803 19.1568 33.6519 20.9052 32.9803C22.0718 32.5303 22.9485 31.5203 23.3552 30.4003C23.6118 29.7003 23.6085 28.9969 23.6085 28.2686V7.55859H27.6768C27.8452 8.51359 28.3102 9.87526 29.5418 11.2253C30.0352 11.7336 30.5918 12.1836 31.1968 12.5636C31.3752 12.7503 32.2918 13.6653 33.4668 14.2269C34.0752 14.5186 34.7168 14.7419 35.3768 14.8919Z" fill="white"/>
<path d="M7.61103 30.9458V30.9491L7.71103 31.2224C7.70103 31.1891 7.6627 31.0941 7.61103 30.9458ZM15.141 19.7391C14.1041 20.1215 13.1364 20.6703 12.276 21.3641C11.3143 22.1591 10.4992 23.1163 9.8677 24.1924C9.63103 24.5824 8.73436 26.1458 8.62603 28.6908C8.56436 30.1324 9.01603 31.6224 9.23103 32.2424V32.2474C9.3677 32.6008 9.8977 33.8508 10.7644 34.9124C11.016 35.2191 11.286 35.5124 11.5727 35.7908C10.6583 35.1858 9.8383 34.4489 9.13936 33.6041C8.50195 32.7974 7.98697 31.9011 7.61103 30.9441V30.9408C7.39436 30.3208 6.9427 28.8308 7.00603 27.3858C7.11436 24.8408 8.00936 23.2791 8.24603 22.8874C8.87805 21.8117 9.69372 20.855 10.656 20.0608C11.5156 19.3668 12.4828 18.818 13.5194 18.4358C15.1623 17.7825 16.9475 17.5705 18.6977 17.8208V19.0241C17.4784 19.0428 16.2728 19.2851 15.141 19.7391Z" fill="#33F3ED"/>
<path d="M27.6805 7.55833H23.6105V28.27C23.6105 28.9983 23.6105 29.7 23.3588 30.4017C22.9471 31.5217 22.0738 32.5317 20.9088 32.98C19.1588 33.6533 17.7921 33.58 16.1588 32.5467C15.7565 32.2817 15.4006 31.9523 15.1055 31.5717C16.4955 32.2817 17.7388 32.2683 19.2805 31.6767C20.4455 31.2267 21.3205 30.2167 21.7305 29.0967C21.9871 28.3967 21.9838 27.6933 21.9838 26.9667V6.25H27.6021C27.6021 6.25 27.5405 6.765 27.6805 7.55833ZM35.3755 13.7383V14.8917C34.7179 14.7418 34.079 14.5193 33.4705 14.2283C32.2938 13.665 31.3788 12.75 31.1988 12.5633C31.4071 12.695 31.6238 12.8133 31.8455 12.92C33.2738 13.6033 34.6821 13.8083 35.3755 13.7383Z" fill="#33F3ED"/>
</svg>
