<svg width="47" height="50" viewBox="0 0 47 50" fill="none" xmlns="http://www.w3.org/2000/svg">
<path d="M6.74133 37.0004C17.6769 38.8017 28.8618 33.1503 31.6258 24.6603C31.3444 24.538 31.0639 24.3021 30.7799 24.3001C25.9314 24.2666 23.1214 21.345 21.0771 17.4118C19.4792 14.3403 18.3852 11.1071 18.409 7.59301C18.4144 6.60592 18.4903 5.59429 18.721 4.64391C19.6143 0.984137 22.2043 -0.31829 25.764 1.01865C28.136 1.91438 29.8388 3.64041 31.2372 5.66488C33.7314 9.28738 35.1219 13.3295 35.5529 17.7003C35.6369 18.5611 35.684 19.4267 35.7767 20.6951C41.1958 18.2941 43.7137 13.5737 46.98 9.2881C46.7583 10.1484 46.6863 11.0899 46.2882 11.862C44.1367 16.0438 41.4322 19.7773 37.2244 22.142C36.027 22.8148 35.1597 23.5585 34.7634 25.0137C33.2041 30.678 29.4876 34.613 24.3474 37.2565C20.4697 39.2512 16.344 40.4139 11.9826 40.6979C10.9047 40.7686 9.83338 40.8695 8.03176 41.0168C10.4569 43.8036 12.5275 46.172 14.5916 48.5387C14.4533 48.7164 14.3133 48.9008 14.1751 49.0785C13.5962 48.9791 12.8942 49.0542 12.4688 48.7455C10.4202 47.2575 8.40524 45.7213 6.47118 44.0921C4.70816 42.5995 3.09845 40.9259 1.35908 39.3967C-0.34543 37.8978 -0.503921 36.7191 1.3964 35.8577C4.69938 34.355 8.1554 33.1691 11.5882 31.9629C12.057 31.7993 12.75 32.2837 13.335 32.47C13.0265 33.0874 12.8747 33.9799 12.3816 34.2653C10.6809 35.2351 8.85649 35.9952 6.74305 36.9938L6.74133 37.0004ZM32.4754 21.9706C33.0395 15.1183 31.2931 9.25636 26.3332 4.52198C25.2716 3.50879 23.7566 2.59922 22.4822 3.51532C21.5924 4.1536 21.0317 5.69453 20.9144 6.89461C20.4644 11.3727 22.019 15.3575 24.5349 18.9785C26.3153 21.5352 28.7231 22.7886 32.4754 21.9706Z" fill="#D7DFEF"/>
</svg>
