<svg width="54" height="72" viewBox="0 0 54 72" fill="none" xmlns="http://www.w3.org/2000/svg">
<path d="M45.1381 66.0632C43.6677 67.7334 42.1922 69.3983 40.5775 71.2298C41.8549 72.3504 43.4387 72.1526 44.5899 71.1365C47.1643 68.8501 49.8128 66.5437 51.8655 63.8173C54.1327 60.8094 53.1779 58.75 49.5799 57.732C46.3549 56.8197 43.1074 56.0124 39.8601 55.1947C38.8513 54.9372 37.7342 54.4831 36.972 56.0057C38.0865 57.941 40.3215 57.932 42.0992 58.67C43.9398 59.43 45.8673 59.991 48.4288 60.8619C46.8706 61.5451 45.9685 62.0272 45.0157 62.3504C35.89 65.4304 26.7505 65.8167 17.6283 62.2708C13.4318 60.6378 9.72962 58.2529 6.92257 54.6743C2.77164 49.3837 2.41189 44.4129 6.04524 38.7844C7.56628 36.4296 9.64682 34.4364 11.5192 32.2292C12.783 33.1756 13.6183 33.8206 14.4697 34.4499C18.638 37.4953 22.9575 37.2906 27.2827 34.9458C29.0021 34.0119 30.5207 32.7009 30.2587 30.4567C30.0007 28.3233 28.4342 27.1299 26.5986 26.3857C23.8296 25.2588 20.9492 25.448 18.1261 26.123C16.2863 26.5595 14.5065 27.2606 12.5537 27.8905C10.9561 26.6544 10.6325 24.7098 10.1858 22.9057C9.04135 18.3027 9.92931 13.8775 11.5802 9.56383C12.7189 6.59195 13.9624 3.66379 15.2241 0.551408C12.8294 1.10098 12.2417 1.73535 9.65217 9.045C8.51047 12.2593 7.60779 15.7513 7.59739 19.1247C7.58554 22.6141 8.79128 26.1057 9.60838 30.3295C8.56258 31.3472 6.83135 32.8027 5.36595 34.4994C-1.20169 42.1084 -1.03883 50.6133 5.66243 58.0872C10.071 63.0021 15.6391 65.8205 21.9671 67.2849C28.5213 68.8001 35.0291 68.5277 41.4577 66.5831C42.5794 66.2413 43.7011 65.8995 44.8228 65.5577C44.9261 65.7279 45.0294 65.8981 45.1327 66.0683L45.1381 66.0632ZM14.8472 30.8026C20.0715 27.7806 24.9671 27.8796 27.1203 31.0532C23.1773 34.8796 18.2185 34.7797 14.8472 30.8026Z" fill="#D7DFEF"/>
</svg>
