<svg width="925" height="1197" viewBox="0 0 925 1197" fill="none" xmlns="http://www.w3.org/2000/svg">
<g filter="url(#filter0_g_172_15345)">
<path d="M181.505 715.532C218.706 888.8 389.324 999.104 562.592 961.904C735.859 924.703 846.164 754.085 808.964 580.817C771.763 407.55 551.531 66.1568 378.263 103.357C284.23 123.546 135.015 218.827 104.948 358.952C79.613 477.026 164.494 636.296 181.505 715.532Z" fill="#020617"/>
<g filter="url(#filter1_f_172_15345)">
<circle cx="245.757" cy="245.757" r="245.757" transform="matrix(-0.815895 -0.5782 -0.5782 0.815895 861.664 768.859)" fill="url(#paint0_linear_172_15345)"/>
</g>
<g style="mix-blend-mode:color-dodge">
<path d="M427.148 937.798C450.412 1046.15 557.111 1115.14 665.467 1091.87C773.824 1068.61 842.805 961.908 819.541 853.552C796.277 745.195 658.55 531.699 550.194 554.963C491.389 567.588 398.074 627.174 379.272 714.804C363.428 788.644 416.509 888.247 427.148 937.798Z" fill="#020617"/>
</g>
</g>
<defs>
<filter id="filter0_g_172_15345" x="0.265625" y="0.546875" width="923.789" height="1195.84" filterUnits="userSpaceOnUse" color-interpolation-filters="sRGB">
<feFlood flood-opacity="0" result="BackgroundImageFix"/>
<feBlend mode="normal" in="SourceGraphic" in2="BackgroundImageFix" result="shape"/>
<feTurbulence type="fractalNoise" baseFrequency="2 2" numOctaves="3" seed="28" />
<feDisplacementMap in="shape" scale="200" xChannelSelector="R" yChannelSelector="G" result="displacedImage" width="100%" height="100%" />
<feMerge result="effect1_texture_172_15345">
<feMergeNode in="displacedImage"/>
</feMerge>
</filter>
<filter id="filter1_f_172_15345" x="213.281" y="521.498" width="611.555" height="611.555" filterUnits="userSpaceOnUse" color-interpolation-filters="sRGB">
<feFlood flood-opacity="0" result="BackgroundImageFix"/>
<feBlend mode="normal" in="SourceGraphic" in2="BackgroundImageFix" result="shape"/>
<feGaussianBlur stdDeviation="30" result="effect1_foregroundBlur_172_15345"/>
</filter>
<linearGradient id="paint0_linear_172_15345" x1="245.757" y1="0" x2="245.757" y2="491.515" gradientUnits="userSpaceOnUse">
<stop offset="0.386801" stop-color="#B969DE"/>
<stop offset="1" stop-color="#B969DE" stop-opacity="0"/>
</linearGradient>
</defs>
</svg>
